G04*
G04 #@! TF.GenerationSoftware,Altium Limited,Altium Designer,26.9.1 (10)*
G04*
G04 Layer_Color=0*
G04 Board_Origin=0|0*
%FSLAX44Y44*%
%MOMM*%
G71*
G04*
G04 #@! TF.SameCoordinates,D9BBC1D2-CE30-4EB4-BAD6-3A8E8EEA8A01*
G04*
G04*
G04 #@! TF.FilePolarity,Positive*
G04*
G01*
G75*
%ADD53C,0.1000*%
D53*
X870000Y770000D02*
X880000D01*
X875000Y765000D02*
Y775000D01*
X800000Y745000D02*
Y755000D01*
X795000Y750000D02*
X805000D01*
X834500Y775500D02*
X844500D01*
X839500Y770500D02*
Y780500D01*
X760000Y800000D02*
X770000D01*
X765000Y795000D02*
Y805000D01*
X760000Y781000D02*
X770000D01*
X765000Y776000D02*
Y786000D01*
X935000Y720000D02*
X945000D01*
X940000Y715000D02*
Y725000D01*
X1106500Y696500D02*
X1116500D01*
X1111500Y691500D02*
Y701500D01*
X1010000Y565000D02*
X1020000D01*
X1015000Y560000D02*
Y570000D01*
X964953Y660000D02*
Y670000D01*
X959953Y665000D02*
X969953D01*
X1090000Y560000D02*
X1100000D01*
X1095000Y555000D02*
Y565000D01*
X965000Y635000D02*
Y645000D01*
X960000Y640000D02*
X970000D01*
X1040000Y665000D02*
Y675000D01*
X1035000Y670000D02*
X1045000D01*
X1090000Y588509D02*
X1100000D01*
X1095000Y583509D02*
Y593509D01*
X1030000Y645000D02*
X1040000D01*
X1035000Y640000D02*
Y650000D01*
X1050000Y645000D02*
X1060000D01*
X1055000Y640000D02*
Y650000D01*
X875000Y540000D02*
Y550000D01*
X870000Y545000D02*
X880000D01*
Y790000D02*
Y800000D01*
X875000Y795000D02*
X885000D01*
X915000Y790000D02*
Y800000D01*
X910000Y795000D02*
X920000D01*
X809000Y660000D02*
Y670000D01*
X804000Y665000D02*
X814000D01*
X799000Y626850D02*
Y636150D01*
X794350Y631500D02*
X803650D01*
X785000Y660000D02*
Y670000D01*
X780000Y665000D02*
X790000D01*
X1013767Y810000D02*
Y820000D01*
X1008767Y815000D02*
X1018767D01*
X905000Y635000D02*
Y645000D01*
X900000Y640000D02*
X910000D01*
X965000Y810000D02*
Y820000D01*
X960000Y815000D02*
X970000D01*
X865000Y735000D02*
Y745000D01*
X860000Y740000D02*
X870000D01*
X925000Y635000D02*
Y645000D01*
X920000Y640000D02*
X930000D01*
X835000Y670000D02*
X845000D01*
X840000Y665000D02*
Y675000D01*
X835000Y711000D02*
X845000D01*
X840000Y706000D02*
Y716000D01*
X815000Y710000D02*
X825000D01*
X820000Y705000D02*
Y715000D01*
M02*
