G04*
G04 #@! TF.GenerationSoftware,Altium Limited,Altium Designer,26.9.1 (10)*
G04*
G04 Layer_Color=65535*
G04 Board_Origin=0|0*
%FSLAX44Y44*%
%MOMM*%
G71*
G04*
G04 #@! TF.SameCoordinates,D9BBC1D2-CE30-4EB4-BAD6-3A8E8EEA8A01*
G04*
G04*
G04 #@! TF.FilePolarity,Positive*
G04*
G01*
G75*
%ADD10C,0.2500*%
%ADD11C,0.2000*%
%ADD12C,0.2540*%
D10*
X818750Y814500D02*
G03*
X818750Y814500I-1250J0D01*
G01*
X1074250Y683250D02*
G03*
X1074250Y683250I-1250J0D01*
G01*
X1051250Y597950D02*
G03*
X1051250Y597950I-1250J0D01*
G01*
X850250Y724500D02*
G03*
X850250Y724500I-1250J0D01*
G01*
X845000Y582000D02*
G03*
X845000Y582000I-1250J0D01*
G01*
X774000Y622500D02*
G03*
X774000Y622500I-1250J0D01*
G01*
D11*
X882362Y761638D02*
Y778362D01*
X867638Y761638D02*
Y778362D01*
X795000Y756350D02*
X805000D01*
X795000Y743650D02*
X805000D01*
X845850Y770500D02*
Y780500D01*
X833150Y770500D02*
Y780500D01*
X771350Y795000D02*
Y805000D01*
X758650Y795000D02*
Y805000D01*
X771350Y776000D02*
Y786000D01*
X758650Y776000D02*
Y786000D01*
X826500Y763500D02*
Y766750D01*
X823250Y763500D02*
X826500D01*
X783500D02*
X786750D01*
X783500D02*
Y766750D01*
Y803250D02*
Y806500D01*
X786750D01*
X826500Y803250D02*
Y806500D01*
X823250D02*
X826500D01*
X946350Y715000D02*
Y725000D01*
X933650Y715000D02*
Y725000D01*
X1078000Y656050D02*
X1104750D01*
X1078000Y736950D02*
X1104750D01*
X1078000Y732250D02*
Y736950D01*
Y656050D02*
Y660750D01*
X982475Y582525D02*
X1047525D01*
X982475Y547475D02*
Y582525D01*
Y547475D02*
X1047525D01*
Y582525D01*
X952226Y663010D02*
Y667010D01*
X950203Y665000D02*
X954203D01*
X958730Y657303D02*
X971176D01*
X958730Y672750D02*
X971176D01*
X1092990Y547273D02*
X1096990D01*
X1095000Y545250D02*
Y549250D01*
X1102697Y553777D02*
Y566223D01*
X1087250Y553777D02*
Y566223D01*
X961263Y631250D02*
X968737D01*
X961263Y648750D02*
X968737D01*
X855500Y652000D02*
X859750D01*
X855500D02*
Y656250D01*
X925250Y652000D02*
X929500D01*
Y656250D01*
Y721750D02*
Y726000D01*
X925250D02*
X929500D01*
X855500D02*
X859750D01*
X855500Y721750D02*
Y726000D01*
X1025939Y660939D02*
X1054061D01*
X1025939Y679061D02*
X1054061D01*
X1101250Y587783D02*
Y589235D01*
X1088750Y587783D02*
Y589235D01*
X1041350Y640000D02*
Y650000D01*
X1028650Y640000D02*
Y650000D01*
X1061350Y640000D02*
Y650000D01*
X1048650Y640000D02*
Y650000D01*
X821250Y553000D02*
Y565250D01*
X834000Y524750D02*
X916000D01*
X928750Y553000D02*
Y565250D01*
X913000D02*
X928750D01*
X821250D02*
X837000D01*
X880000Y788000D02*
Y802000D01*
X915000Y788000D02*
Y802000D01*
X804000Y671350D02*
X814000D01*
X804000Y658650D02*
X814000D01*
X776500Y612500D02*
Y650500D01*
Y612500D02*
X821500D01*
Y650500D01*
X776500D02*
X821500D01*
X780000Y658650D02*
X790000D01*
X780000Y671350D02*
X790000D01*
X999706Y824061D02*
X1027828D01*
X999706Y805939D02*
X1027828D01*
X900000Y633650D02*
X910000D01*
X900000Y646350D02*
X910000D01*
X960000Y808650D02*
X970000D01*
X960000Y821350D02*
X970000D01*
X860000Y746350D02*
X870000D01*
X860000Y733650D02*
X870000D01*
X920000Y633650D02*
X930000D01*
X920000Y646350D02*
X930000D01*
X833650Y665000D02*
Y675000D01*
X846350Y665000D02*
Y675000D01*
Y706000D02*
Y716000D01*
X833650Y706000D02*
Y716000D01*
X826350Y705000D02*
Y715000D01*
X813650Y705000D02*
Y715000D01*
D12*
X963250Y787860D02*
X1026750D01*
X963250Y754840D02*
Y787860D01*
Y754840D02*
X1026750D01*
Y787860D01*
M02*
