G04*
G04 #@! TF.GenerationSoftware,Altium Limited,Altium Designer,26.9.1 (10)*
G04*
G04 Layer_Color=8388736*
G04 Board_Origin=0|0*
%FSLAX44Y44*%
%MOMM*%
G71*
G04*
G04 #@! TF.SameCoordinates,D9BBC1D2-CE30-4EB4-BAD6-3A8E8EEA8A01*
G04*
G04*
G04 #@! TF.FilePolarity,Negative*
G04*
G01*
G75*
%ADD14R,0.5200X0.5200*%
%ADD15R,0.5200X0.5200*%
%ADD16O,0.8000X0.2500*%
%ADD17R,1.3800X0.4500*%
%ADD18O,0.2500X0.8000*%
%ADD19R,1.3082X0.8065*%
%ADD20R,0.8721X1.0043*%
%ADD21R,1.4500X1.3000*%
%ADD22R,1.2037X1.6582*%
%ADD23R,1.3000X1.4500*%
%ADD24R,0.6000X1.7000*%
%ADD25R,0.6725X0.7154*%
%ADD26R,0.3500X0.8000*%
%ADD27R,2.6000X2.7000*%
%ADD29R,5.6000X5.6000*%
%ADD30R,1.4000X1.2000*%
%ADD31R,1.0587X1.0121*%
%ADD32R,0.9000X1.4000*%
%ADD33R,1.5500X1.4250*%
%ADD34R,1.9000X1.0000*%
%ADD35R,1.9000X1.8000*%
%ADD36R,1.3000X1.6500*%
%ADD37R,1.1087X1.0121*%
G04:AMPARAMS|DCode=38|XSize=1.0043mm|YSize=3.1821mm|CornerRadius=0.4369mm|HoleSize=0mm|Usage=FLASHONLY|Rotation=270.000|XOffset=0mm|YOffset=0mm|HoleType=Round|Shape=RoundedRectangle|*
%AMROUNDEDRECTD38*
21,1,1.0043,2.3084,0,0,270.0*
21,1,0.1306,3.1821,0,0,270.0*
1,1,0.8737,-1.1542,-0.0653*
1,1,0.8737,-1.1542,0.0653*
1,1,0.8737,1.1542,0.0653*
1,1,0.8737,1.1542,-0.0653*
%
%ADD38ROUNDEDRECTD38*%
G04:AMPARAMS|DCode=39|XSize=1.0043mm|YSize=0.8721mm|CornerRadius=0.4361mm|HoleSize=0mm|Usage=FLASHONLY|Rotation=270.000|XOffset=0mm|YOffset=0mm|HoleType=Round|Shape=RoundedRectangle|*
%AMROUNDEDRECTD39*
21,1,1.0043,0.0000,0,0,270.0*
21,1,0.1322,0.8721,0,0,270.0*
1,1,0.8721,0.0000,-0.0661*
1,1,0.8721,0.0000,0.0661*
1,1,0.8721,0.0000,0.0661*
1,1,0.8721,0.0000,-0.0661*
%
%ADD39ROUNDEDRECTD39*%
%ADD40R,0.4064X0.6096*%
%ADD41R,0.6096X0.4064*%
%ADD42R,0.9000X1.3500*%
%ADD43R,1.0000X2.7000*%
%ADD44C,0.7900*%
%ADD45R,1.0532X0.5532*%
%ADD46C,0.9000*%
%ADD47C,0.7000*%
%ADD48C,0.5000*%
%ADD49C,0.6000*%
D14*
X961000Y815000D02*
D03*
X921000Y640000D02*
D03*
X901000D02*
D03*
X804000Y750000D02*
D03*
X869000Y740000D02*
D03*
X813000Y665000D02*
D03*
X781000D02*
D03*
X796000Y750000D02*
D03*
X861000Y740000D02*
D03*
X929000Y640000D02*
D03*
X969000Y815000D02*
D03*
X789000Y665000D02*
D03*
X909000Y640000D02*
D03*
X805000Y665000D02*
D03*
D15*
X940000Y716000D02*
D03*
X1055000Y641000D02*
D03*
X1035000D02*
D03*
X839500Y771500D02*
D03*
X765000Y796000D02*
D03*
Y777000D02*
D03*
X840000Y674000D02*
D03*
Y707000D02*
D03*
X820000Y706000D02*
D03*
X839500Y779500D02*
D03*
X765000Y804000D02*
D03*
Y785000D02*
D03*
X940000Y724000D02*
D03*
X840000Y715000D02*
D03*
X820000Y714000D02*
D03*
X840000Y666000D02*
D03*
X1055000Y649000D02*
D03*
X1035000D02*
D03*
D16*
X926500Y711500D02*
D03*
X858500Y681500D02*
D03*
X926500Y716500D02*
D03*
X858500D02*
D03*
Y676500D02*
D03*
X926500Y701500D02*
D03*
Y696500D02*
D03*
Y706500D02*
D03*
Y691500D02*
D03*
Y686500D02*
D03*
Y681500D02*
D03*
Y676500D02*
D03*
Y671500D02*
D03*
Y666500D02*
D03*
Y661500D02*
D03*
X858500D02*
D03*
Y666500D02*
D03*
Y671500D02*
D03*
Y686500D02*
D03*
Y691500D02*
D03*
Y696500D02*
D03*
Y701500D02*
D03*
Y706500D02*
D03*
Y711500D02*
D03*
D17*
X1088400Y709500D02*
D03*
Y703000D02*
D03*
Y696500D02*
D03*
Y690000D02*
D03*
Y683500D02*
D03*
D18*
X915000Y655000D02*
D03*
X870000Y723000D02*
D03*
X865000D02*
D03*
X920000Y655000D02*
D03*
X880000Y723000D02*
D03*
X890000D02*
D03*
X895000D02*
D03*
X875000D02*
D03*
X885000D02*
D03*
X900000D02*
D03*
X905000D02*
D03*
X910000D02*
D03*
X915000D02*
D03*
X920000D02*
D03*
X910000Y655000D02*
D03*
X905000D02*
D03*
X900000D02*
D03*
X895000D02*
D03*
X890000D02*
D03*
X885000D02*
D03*
X880000D02*
D03*
X875000D02*
D03*
X870000D02*
D03*
X865000D02*
D03*
D19*
X1095000Y597017D02*
D03*
Y580000D02*
D03*
D20*
X1037900Y597950D02*
D03*
D21*
X1065000Y571000D02*
D03*
Y555000D02*
D03*
D22*
X952244Y640000D02*
D03*
X977756D02*
D03*
D23*
X1028000Y620000D02*
D03*
X1012000D02*
D03*
D24*
X906250Y567750D02*
D03*
X843750D02*
D03*
X881250D02*
D03*
X893750D02*
D03*
X856250D02*
D03*
X868750D02*
D03*
D25*
X875000Y774786D02*
D03*
Y765214D02*
D03*
D26*
X817500Y805000D02*
D03*
Y765000D02*
D03*
X792500D02*
D03*
X797500D02*
D03*
X802500D02*
D03*
X807500D02*
D03*
X812500D02*
D03*
X792500Y805000D02*
D03*
X797500D02*
D03*
X802500D02*
D03*
X807500D02*
D03*
X812500D02*
D03*
D27*
X805000Y785000D02*
D03*
D29*
X892500Y689000D02*
D03*
D30*
X810000Y623000D02*
D03*
X788000Y640000D02*
D03*
Y623000D02*
D03*
X810000Y640000D02*
D03*
D31*
X1022534Y815000D02*
D03*
X1005000D02*
D03*
D32*
X924000Y795000D02*
D03*
X871000Y795000D02*
D03*
X889000D02*
D03*
X906000Y795000D02*
D03*
D33*
X1089250Y721375D02*
D03*
Y671625D02*
D03*
D34*
X1115000Y712000D02*
D03*
D35*
Y685000D02*
D03*
D36*
Y730250D02*
D03*
Y662750D02*
D03*
D37*
X1048517Y670000D02*
D03*
X1031483D02*
D03*
D38*
X1015000Y532050D02*
D03*
D39*
X992100Y597950D02*
D03*
X1015000D02*
D03*
D40*
X969906Y665000D02*
D03*
X960000D02*
D03*
D41*
X1095000Y564953D02*
D03*
Y555047D02*
D03*
D42*
X820500Y685000D02*
D03*
X805000D02*
D03*
D43*
X924750Y535750D02*
D03*
X825250D02*
D03*
D44*
X995000Y777700D02*
D03*
X1007700Y765000D02*
D03*
Y777700D02*
D03*
X981500D02*
D03*
X982300Y765000D02*
D03*
X995000D02*
D03*
D45*
X785250Y787500D02*
D03*
Y777500D02*
D03*
X824750Y772500D02*
D03*
Y777500D02*
D03*
Y782500D02*
D03*
Y787500D02*
D03*
Y792500D02*
D03*
Y797500D02*
D03*
X785250Y772500D02*
D03*
Y782500D02*
D03*
Y792500D02*
D03*
Y797500D02*
D03*
D46*
X1110000Y530000D02*
D03*
X750000D02*
D03*
X1105000Y820000D02*
D03*
X750000D02*
D03*
X969600Y781510D02*
D03*
Y761190D02*
D03*
X1020400Y771350D02*
D03*
D47*
X1040000Y590000D02*
D03*
X1055000Y630000D02*
D03*
X1035000Y635000D02*
D03*
X1040000Y625000D02*
D03*
Y615000D02*
D03*
X1070000Y585000D02*
D03*
X1060000D02*
D03*
X1095020Y606175D02*
D03*
X950498Y720394D02*
D03*
X920000Y630000D02*
D03*
X830000Y670000D02*
D03*
X1070000Y710000D02*
D03*
X990000Y795000D02*
D03*
X960000Y805000D02*
D03*
X950000Y625000D02*
D03*
X905000Y585000D02*
D03*
X900000Y630000D02*
D03*
X810000Y605000D02*
D03*
X770000Y640000D02*
D03*
X775000Y665000D02*
D03*
X820000Y660000D02*
D03*
X835000Y700000D02*
D03*
X810000Y705000D02*
D03*
X865000Y775000D02*
D03*
X833323Y764190D02*
D03*
X815000Y755000D02*
D03*
X755000Y770000D02*
D03*
X750000Y795000D02*
D03*
X955000Y825000D02*
D03*
X895000Y810000D02*
D03*
X860000D02*
D03*
D48*
X914500Y689000D02*
D03*
Y711000D02*
D03*
Y667000D02*
D03*
Y678000D02*
D03*
X903500Y700000D02*
D03*
X914500D02*
D03*
X903500Y711000D02*
D03*
Y689000D02*
D03*
X892500D02*
D03*
Y711000D02*
D03*
X881500D02*
D03*
X892500Y700000D02*
D03*
X881500Y689000D02*
D03*
X903500Y667000D02*
D03*
Y678000D02*
D03*
X892500D02*
D03*
X881500D02*
D03*
X892500Y667000D02*
D03*
X881500D02*
D03*
X810500Y790500D02*
D03*
Y779500D02*
D03*
X799500Y790500D02*
D03*
Y779500D02*
D03*
X870500Y700000D02*
D03*
Y711000D02*
D03*
X881500Y700000D02*
D03*
X870500Y689000D02*
D03*
Y667000D02*
D03*
Y678000D02*
D03*
D49*
X834517Y680685D02*
D03*
M02*
