M48
;Layer_Color=9474304
;FILE_FORMAT=4:4
METRIC,LZ
;TYPE=PLATED
T01F00S00C0.2000
T02F00S00C0.2500
T03F00S00C0.3000
%
T01
X008705Y00667
Y00678
X008815
Y00667
X008925
Y00678
Y00689
X009035
X009145
Y00678
Y00667
X009035
Y00678
Y007
X009145
Y00711
X009035
X008925
X008815
X008705
Y007
X008815
X008925
X008815Y00689
X008705
X008105Y007795
Y007905
X007995
Y007795
T02
X00834517Y00680685
T03
X0081Y00605
X0082Y0066
X0083Y0067
X00835Y007
X0081Y00705
X00815Y00755
X00833323Y0076419
X00865Y00775
X00950498Y00720394
X0095Y00625
X0092Y0063
X009
X00905Y00585
X0104Y0059
X0106Y00585
X0107
X0109502Y00606175
X0104Y00615
Y00625
X01035Y00635
X01055Y0063
X0107Y0071
X00775Y00665
X0077Y0064
X00755Y0077
X0075Y00795
X0086Y0081
X00895
X0096Y00805
X00955Y00825
X0099Y00795
M30
