G04*
G04 #@! TF.GenerationSoftware,Altium Limited,Altium Designer,26.9.1 (10)*
G04*
G04 Layer_Physical_Order=4*
G04 Layer_Color=16711680*
G04 Board_Origin=0|0*
%FSLAX44Y44*%
%MOMM*%
G71*
G04*
G04 #@! TF.SameCoordinates,D9BBC1D2-CE30-4EB4-BAD6-3A8E8EEA8A01*
G04*
G04*
G04 #@! TF.FilePolarity,Positive*
G04*
G01*
G75*
%ADD11C,0.2000*%
%ADD46C,0.9000*%
%ADD47C,0.7000*%
%ADD48C,0.5000*%
%ADD49C,0.6000*%
%ADD50C,0.2600*%
D11*
X950000Y825000D02*
X955000D01*
X945000Y820000D02*
X950000Y825000D01*
X945000Y805000D02*
Y820000D01*
Y805000D02*
X950000Y800000D01*
X940000Y790000D02*
X950000Y800000D01*
X940000Y770000D02*
Y790000D01*
X925000Y755000D02*
X940000Y770000D01*
X850000Y755000D02*
X925000D01*
X845000Y750000D02*
X850000Y755000D01*
X845000Y691168D02*
Y750000D01*
X834517Y680685D02*
X845000Y691168D01*
D46*
X969600Y781510D02*
D03*
Y761190D02*
D03*
X1020400Y771350D02*
D03*
D47*
X1040000Y590000D02*
D03*
X1055000Y630000D02*
D03*
X1035000Y635000D02*
D03*
X1040000Y625000D02*
D03*
Y615000D02*
D03*
X1070000Y585000D02*
D03*
X1060000D02*
D03*
X1095020Y606175D02*
D03*
X950498Y720394D02*
D03*
X920000Y630000D02*
D03*
X830000Y670000D02*
D03*
X1070000Y710000D02*
D03*
X990000Y795000D02*
D03*
X960000Y805000D02*
D03*
X950000Y625000D02*
D03*
X905000Y585000D02*
D03*
X900000Y630000D02*
D03*
X810000Y605000D02*
D03*
X770000Y640000D02*
D03*
X775000Y665000D02*
D03*
X820000Y660000D02*
D03*
X835000Y700000D02*
D03*
X810000Y705000D02*
D03*
X865000Y775000D02*
D03*
X833323Y764190D02*
D03*
X815000Y755000D02*
D03*
X755000Y770000D02*
D03*
X750000Y795000D02*
D03*
X955000Y825000D02*
D03*
X895000Y810000D02*
D03*
X860000D02*
D03*
D48*
X914500Y689000D02*
D03*
Y711000D02*
D03*
Y667000D02*
D03*
Y678000D02*
D03*
X903500Y700000D02*
D03*
X914500D02*
D03*
X903500Y711000D02*
D03*
Y689000D02*
D03*
X892500D02*
D03*
Y711000D02*
D03*
X881500D02*
D03*
X892500Y700000D02*
D03*
X881500Y689000D02*
D03*
X903500Y667000D02*
D03*
Y678000D02*
D03*
X892500D02*
D03*
X881500D02*
D03*
X892500Y667000D02*
D03*
X881500D02*
D03*
X810500Y790500D02*
D03*
Y779500D02*
D03*
X799500Y790500D02*
D03*
Y779500D02*
D03*
X870500Y700000D02*
D03*
Y711000D02*
D03*
X881500Y700000D02*
D03*
X870500Y689000D02*
D03*
Y667000D02*
D03*
Y678000D02*
D03*
D49*
X834517Y680685D02*
D03*
D50*
X860000Y810000D02*
X895000D01*
M02*
