G04*
G04 #@! TF.GenerationSoftware,Altium Limited,Altium Designer,26.9.1 (10)*
G04*
G04 Layer_Physical_Order=1*
G04 Layer_Color=255*
G04 Board_Origin=0|0*
%FSLAX44Y44*%
%MOMM*%
G71*
G04*
G04 #@! TF.SameCoordinates,D9BBC1D2-CE30-4EB4-BAD6-3A8E8EEA8A01*
G04*
G04*
G04 #@! TF.FilePolarity,Positive*
G04*
G01*
G75*
%ADD10C,0.2500*%
%ADD11C,0.2000*%
%ADD14R,0.5200X0.5200*%
%ADD15R,0.5200X0.5200*%
%ADD16O,0.8000X0.2500*%
%ADD17R,1.3800X0.4500*%
%ADD18O,0.2500X0.8000*%
%ADD19R,1.3082X0.8065*%
%ADD20R,0.8721X1.0043*%
%ADD21R,1.4500X1.3000*%
%ADD22R,1.2037X1.6582*%
%ADD23R,1.3000X1.4500*%
%ADD24R,0.6000X1.7000*%
%ADD25R,0.6725X0.7154*%
%ADD26R,0.3500X0.8000*%
%ADD27R,2.6000X2.7000*%
%ADD28R,0.8500X0.3500*%
%ADD29R,5.6000X5.6000*%
%ADD30R,1.4000X1.2000*%
%ADD31R,1.0587X1.0121*%
%ADD32R,0.9000X1.4000*%
%ADD33R,1.5500X1.4250*%
%ADD34R,1.9000X1.0000*%
%ADD35R,1.9000X1.8000*%
%ADD36R,1.3000X1.6500*%
%ADD37R,1.1087X1.0121*%
G04:AMPARAMS|DCode=38|XSize=1.0043mm|YSize=3.1821mm|CornerRadius=0.4369mm|HoleSize=0mm|Usage=FLASHONLY|Rotation=270.000|XOffset=0mm|YOffset=0mm|HoleType=Round|Shape=RoundedRectangle|*
%AMROUNDEDRECTD38*
21,1,1.0043,2.3084,0,0,270.0*
21,1,0.1306,3.1821,0,0,270.0*
1,1,0.8737,-1.1542,-0.0653*
1,1,0.8737,-1.1542,0.0653*
1,1,0.8737,1.1542,0.0653*
1,1,0.8737,1.1542,-0.0653*
%
%ADD38ROUNDEDRECTD38*%
G04:AMPARAMS|DCode=39|XSize=1.0043mm|YSize=0.8721mm|CornerRadius=0.4361mm|HoleSize=0mm|Usage=FLASHONLY|Rotation=270.000|XOffset=0mm|YOffset=0mm|HoleType=Round|Shape=RoundedRectangle|*
%AMROUNDEDRECTD39*
21,1,1.0043,0.0000,0,0,270.0*
21,1,0.1322,0.8721,0,0,270.0*
1,1,0.8721,0.0000,-0.0661*
1,1,0.8721,0.0000,0.0661*
1,1,0.8721,0.0000,0.0661*
1,1,0.8721,0.0000,-0.0661*
%
%ADD39ROUNDEDRECTD39*%
%ADD40R,0.4064X0.6096*%
%ADD41R,0.6096X0.4064*%
%ADD42R,0.9000X1.3500*%
%ADD43R,1.0000X2.7000*%
%ADD44C,0.7900*%
%ADD46C,0.9000*%
%ADD47C,0.7000*%
%ADD48C,0.5000*%
%ADD49C,0.6000*%
%ADD50C,0.2600*%
%ADD51C,0.2602*%
%ADD52C,0.3000*%
G36*
X1040000Y647434D02*
X1039600Y645600D01*
X1030400D01*
Y645000D01*
X1015000D01*
Y680000D01*
X1040000D01*
Y647434D01*
D02*
G37*
G36*
X1065000Y625000D02*
X1045000Y605000D01*
X1050000Y600000D01*
X1065000D01*
X1075000Y590000D01*
X1055937Y566171D01*
X1053940Y566060D01*
X1021485Y598515D01*
Y598611D01*
X1020992Y601093D01*
X1020000Y602577D01*
Y610750D01*
X1020500D01*
Y624875D01*
X1020565Y625200D01*
X1020565Y625200D01*
Y625565D01*
X1030000Y635000D01*
Y640000D01*
X1033561Y643561D01*
X1039600D01*
X1039779Y643596D01*
X1039961Y643593D01*
X1040165Y643673D01*
X1040380Y643716D01*
X1040532Y643817D01*
X1040702Y643884D01*
X1040860Y644036D01*
X1041042Y644158D01*
X1041143Y644310D01*
X1041274Y644436D01*
X1041362Y644637D01*
X1041484Y644820D01*
X1041519Y644998D01*
X1041520Y645000D01*
X1050400D01*
Y644400D01*
X1059600D01*
Y645000D01*
X1065000D01*
Y625000D01*
D02*
G37*
%LPC*%
G36*
X1037900Y601976D02*
X1036612Y601720D01*
X1035520Y600991D01*
X1034791Y599899D01*
X1034535Y598611D01*
Y597950D01*
X1034600Y597620D01*
X1034535Y597289D01*
X1034791Y596001D01*
X1035520Y594909D01*
X1038580Y591850D01*
X1038580Y591850D01*
X1039672Y591120D01*
X1040960Y590864D01*
X1041021D01*
X1042309Y591120D01*
X1043400Y591850D01*
X1044130Y592942D01*
X1044386Y594229D01*
X1044130Y595517D01*
X1043400Y596609D01*
X1043217Y596732D01*
X1041247Y598701D01*
X1041009Y599899D01*
X1040280Y600991D01*
X1039188Y601720D01*
X1037900Y601976D01*
D02*
G37*
%LPD*%
D10*
X839500Y714500D02*
X840000Y715000D01*
X820500Y714500D02*
X839500D01*
X820000Y714000D02*
X820500Y714500D01*
D11*
X837864Y696500D02*
X858500D01*
X833136Y695500D02*
X836864D01*
X832136Y696500D02*
X833136Y695500D01*
X830000Y685000D02*
X836500Y691500D01*
X838521D01*
X839521Y692500D01*
X853740D01*
X836864Y695500D02*
X837864Y696500D01*
X796500D02*
X832136D01*
X788000Y623000D02*
X789000D01*
X769918Y785000D02*
X772418Y782500D01*
X765000Y785000D02*
X769918D01*
X772418Y782500D02*
X779582D01*
X893750Y567750D02*
Y573250D01*
X885000Y582000D02*
X893750Y573250D01*
X885000Y582000D02*
Y655000D01*
X880000Y569000D02*
X881250Y567750D01*
X880000Y569000D02*
Y655000D01*
X868750Y567750D02*
Y589078D01*
X865828Y592000D02*
X868750Y589078D01*
X865828Y592000D02*
Y605828D01*
X875000Y615000D01*
Y630000D01*
X834517Y680685D02*
X840332Y686500D01*
X858500D01*
X820500Y685000D02*
X830000D01*
X805000Y645000D02*
X810000Y640000D01*
X805000Y645000D02*
Y665000D01*
X800000Y634757D02*
Y654000D01*
X789000Y623000D02*
X794000Y628000D01*
X796243Y631000D02*
X800000Y634757D01*
X789000Y665000D02*
X800000Y654000D01*
X794000Y629828D02*
X795172Y631000D01*
X794000Y628000D02*
Y629828D01*
X795172Y631000D02*
X796243D01*
X853990Y692250D02*
X854865D01*
X855615Y691500D01*
X858500D01*
X853740Y692500D02*
X853990Y692250D01*
X805000Y665000D02*
Y685000D01*
X789000Y665000D02*
Y697828D01*
X791172Y700000D01*
X793828D01*
X795000Y698828D01*
Y698000D02*
Y698828D01*
Y698000D02*
X796500Y696500D01*
D14*
X961000Y815000D02*
D03*
X921000Y640000D02*
D03*
X901000D02*
D03*
X804000Y750000D02*
D03*
X869000Y740000D02*
D03*
X813000Y665000D02*
D03*
X781000D02*
D03*
X796000Y750000D02*
D03*
X861000Y740000D02*
D03*
X929000Y640000D02*
D03*
X969000Y815000D02*
D03*
X789000Y665000D02*
D03*
X909000Y640000D02*
D03*
X805000Y665000D02*
D03*
D15*
X940000Y716000D02*
D03*
X1055000Y641000D02*
D03*
X1035000D02*
D03*
X839500Y771500D02*
D03*
X765000Y796000D02*
D03*
Y777000D02*
D03*
X840000Y674000D02*
D03*
Y707000D02*
D03*
X820000Y706000D02*
D03*
X839500Y779500D02*
D03*
X765000Y804000D02*
D03*
Y785000D02*
D03*
X940000Y724000D02*
D03*
X840000Y715000D02*
D03*
X820000Y714000D02*
D03*
X840000Y666000D02*
D03*
X1055000Y649000D02*
D03*
X1035000D02*
D03*
D16*
X926500Y711500D02*
D03*
X858500Y681500D02*
D03*
X926500Y716500D02*
D03*
X858500D02*
D03*
Y676500D02*
D03*
X926500Y701500D02*
D03*
Y696500D02*
D03*
Y706500D02*
D03*
Y691500D02*
D03*
Y686500D02*
D03*
Y681500D02*
D03*
Y676500D02*
D03*
Y671500D02*
D03*
Y666500D02*
D03*
Y661500D02*
D03*
X858500D02*
D03*
Y666500D02*
D03*
Y671500D02*
D03*
Y686500D02*
D03*
Y691500D02*
D03*
Y696500D02*
D03*
Y701500D02*
D03*
Y706500D02*
D03*
Y711500D02*
D03*
D17*
X1088400Y709500D02*
D03*
Y703000D02*
D03*
Y696500D02*
D03*
Y690000D02*
D03*
Y683500D02*
D03*
D18*
X915000Y655000D02*
D03*
X870000Y723000D02*
D03*
X865000D02*
D03*
X920000Y655000D02*
D03*
X880000Y723000D02*
D03*
X890000D02*
D03*
X895000D02*
D03*
X875000D02*
D03*
X885000D02*
D03*
X900000D02*
D03*
X905000D02*
D03*
X910000D02*
D03*
X915000D02*
D03*
X920000D02*
D03*
X910000Y655000D02*
D03*
X905000D02*
D03*
X900000D02*
D03*
X895000D02*
D03*
X890000D02*
D03*
X885000D02*
D03*
X880000D02*
D03*
X875000D02*
D03*
X870000D02*
D03*
X865000D02*
D03*
D19*
X1095000Y597017D02*
D03*
Y580000D02*
D03*
D20*
X1037900Y597950D02*
D03*
D21*
X1065000Y571000D02*
D03*
Y555000D02*
D03*
D22*
X952244Y640000D02*
D03*
X977756D02*
D03*
D23*
X1028000Y620000D02*
D03*
X1012000D02*
D03*
D24*
X906250Y567750D02*
D03*
X843750D02*
D03*
X881250D02*
D03*
X893750D02*
D03*
X856250D02*
D03*
X868750D02*
D03*
D25*
X875000Y774786D02*
D03*
Y765214D02*
D03*
D26*
X817500Y805000D02*
D03*
Y765000D02*
D03*
X792500D02*
D03*
X797500D02*
D03*
X802500D02*
D03*
X807500D02*
D03*
X812500D02*
D03*
X792500Y805000D02*
D03*
X797500D02*
D03*
X802500D02*
D03*
X807500D02*
D03*
X812500D02*
D03*
D27*
X805000Y785000D02*
D03*
D28*
X785250Y787500D02*
D03*
Y777500D02*
D03*
X824750Y772500D02*
D03*
Y777500D02*
D03*
Y782500D02*
D03*
Y787500D02*
D03*
Y792500D02*
D03*
Y797500D02*
D03*
X785250Y772500D02*
D03*
Y782500D02*
D03*
Y792500D02*
D03*
Y797500D02*
D03*
D29*
X892500Y689000D02*
D03*
D30*
X810000Y623000D02*
D03*
X788000Y640000D02*
D03*
Y623000D02*
D03*
X810000Y640000D02*
D03*
D31*
X1022534Y815000D02*
D03*
X1005000D02*
D03*
D32*
X924000Y795000D02*
D03*
X871000Y795000D02*
D03*
X889000D02*
D03*
X906000Y795000D02*
D03*
D33*
X1089250Y721375D02*
D03*
Y671625D02*
D03*
D34*
X1115000Y712000D02*
D03*
D35*
Y685000D02*
D03*
D36*
Y730250D02*
D03*
Y662750D02*
D03*
D37*
X1048517Y670000D02*
D03*
X1031483D02*
D03*
D38*
X1015000Y532050D02*
D03*
D39*
X992100Y597950D02*
D03*
X1015000D02*
D03*
D40*
X969906Y665000D02*
D03*
X960000D02*
D03*
D41*
X1095000Y564953D02*
D03*
Y555047D02*
D03*
D42*
X820500Y685000D02*
D03*
X805000D02*
D03*
D43*
X924750Y535750D02*
D03*
X825250D02*
D03*
D44*
X995000Y777700D02*
D03*
X1007700Y765000D02*
D03*
Y777700D02*
D03*
X981500D02*
D03*
X982300Y765000D02*
D03*
X995000D02*
D03*
D46*
X969600Y781510D02*
D03*
Y761190D02*
D03*
X1020400Y771350D02*
D03*
D47*
X1040000Y590000D02*
D03*
X1055000Y630000D02*
D03*
X1035000Y635000D02*
D03*
X1040000Y625000D02*
D03*
Y615000D02*
D03*
X1070000Y585000D02*
D03*
X1060000D02*
D03*
X1095020Y606175D02*
D03*
X950498Y720394D02*
D03*
X920000Y630000D02*
D03*
X830000Y670000D02*
D03*
X1070000Y710000D02*
D03*
X990000Y795000D02*
D03*
X960000Y805000D02*
D03*
X950000Y625000D02*
D03*
X905000Y585000D02*
D03*
X900000Y630000D02*
D03*
X810000Y605000D02*
D03*
X770000Y640000D02*
D03*
X775000Y665000D02*
D03*
X820000Y660000D02*
D03*
X835000Y700000D02*
D03*
X810000Y705000D02*
D03*
X865000Y775000D02*
D03*
X833323Y764190D02*
D03*
X815000Y755000D02*
D03*
X755000Y770000D02*
D03*
X750000Y795000D02*
D03*
X955000Y825000D02*
D03*
X895000Y810000D02*
D03*
X860000D02*
D03*
D48*
X914500Y689000D02*
D03*
Y711000D02*
D03*
Y667000D02*
D03*
Y678000D02*
D03*
X903500Y700000D02*
D03*
X914500D02*
D03*
X903500Y711000D02*
D03*
Y689000D02*
D03*
X892500D02*
D03*
Y711000D02*
D03*
X881500D02*
D03*
X892500Y700000D02*
D03*
X881500Y689000D02*
D03*
X903500Y667000D02*
D03*
Y678000D02*
D03*
X892500D02*
D03*
X881500D02*
D03*
X892500Y667000D02*
D03*
X881500D02*
D03*
X810500Y790500D02*
D03*
Y779500D02*
D03*
X799500Y790500D02*
D03*
Y779500D02*
D03*
X870500Y700000D02*
D03*
Y711000D02*
D03*
X881500Y700000D02*
D03*
X870500Y689000D02*
D03*
Y667000D02*
D03*
Y678000D02*
D03*
D49*
X834517Y680685D02*
D03*
D50*
X929000Y611000D02*
Y634100D01*
Y611000D02*
X950000Y590000D01*
X1015000Y597289D02*
X1052089Y560200D01*
X1059800D01*
X1041300Y532050D02*
X1064250Y555000D01*
X1065000Y535000D02*
Y555000D01*
X1059800Y560200D02*
X1065000Y555000D01*
X1064250D02*
X1065000D01*
X980000Y520000D02*
X1050000D01*
X950000Y550000D02*
X980000Y520000D01*
X950000Y550000D02*
Y590000D01*
X1050000Y520000D02*
X1065000Y535000D01*
X1015000Y532050D02*
X1041300D01*
X1015000Y597289D02*
Y597950D01*
X814380Y812297D02*
X814482Y812399D01*
X817399D01*
X817500Y812500D01*
X820000Y815000D01*
X1017200Y625200D02*
Y633067D01*
X1031833Y647700D01*
X992100Y599350D02*
X1012000Y619250D01*
X955000Y825000D02*
X955842Y824158D01*
X961709D01*
X967700Y818167D01*
Y816300D02*
Y818167D01*
Y816300D02*
X969000Y815000D01*
X1095000Y564953D02*
Y580000D01*
X1065047Y555047D02*
X1095000D01*
X1065000Y555000D02*
X1065047Y555047D01*
X992100Y597950D02*
Y599350D01*
X1012000Y619250D02*
Y620000D01*
X1017200Y625200D01*
X1031833Y647700D02*
X1033700D01*
X1035000Y649000D01*
X1048517Y655483D02*
X1055000Y649000D01*
X1048517Y655483D02*
Y670000D01*
X1065355D01*
X1077405Y682050D01*
X1090000D01*
Y682550D01*
X1089050Y683500D02*
X1090000Y682550D01*
X1088400Y683500D02*
X1089050D01*
X1001477Y781477D02*
X1005000Y785000D01*
Y815000D01*
X969000D02*
X1005000D01*
X782700Y772450D02*
X785000D01*
X782300Y772050D02*
X782700Y772450D01*
X782300Y759675D02*
Y772050D01*
X780000Y757375D02*
X782300Y759675D01*
X780000Y745000D02*
Y757375D01*
Y745000D02*
X790000Y735000D01*
X820000D01*
X840000Y755000D01*
X860000D01*
X895000Y810000D02*
X904477D01*
X906000Y808477D01*
Y795000D02*
Y808477D01*
X833000Y779500D02*
X839500D01*
X830417Y777500D02*
X831000D01*
X830417Y777500D02*
X830417Y777500D01*
X831000D02*
X833000Y779500D01*
X851523Y810000D02*
X860000D01*
X850000Y808477D02*
X851523Y810000D01*
X850000Y800000D02*
Y808477D01*
X842500Y792500D02*
X850000Y800000D01*
X824750Y792500D02*
X842500D01*
X824750Y797500D02*
X832500D01*
X835000Y800000D01*
Y818477D01*
X885800Y798200D02*
X889000Y795000D01*
X885800Y798200D02*
Y817677D01*
X883477Y820000D02*
X885800Y817677D01*
X836523Y820000D02*
X883477D01*
X835000Y818477D02*
X836523Y820000D01*
X900000Y735000D02*
Y786500D01*
X906000Y792500D01*
Y795000D01*
X889000Y771000D02*
Y795000D01*
X895000Y730000D02*
X900000Y735000D01*
X889000Y771000D02*
X890000Y770000D01*
Y723000D02*
Y770000D01*
X875000Y766000D02*
Y766233D01*
Y766000D02*
X885000Y756000D01*
Y723000D02*
Y756000D01*
X880000Y723000D02*
Y748477D01*
X878477Y750000D02*
X880000Y748477D01*
X865000Y750000D02*
X878477D01*
X860000Y755000D02*
X865000Y750000D01*
X895000Y723000D02*
Y730000D01*
X977756Y640000D02*
Y656134D01*
X969906Y663984D02*
X977756Y656134D01*
X969906Y663984D02*
Y665000D01*
X944715D02*
X960000D01*
X943215Y666500D02*
X944715Y665000D01*
X926500Y666500D02*
X943215D01*
X988545Y781000D02*
Y781455D01*
X980000Y790000D02*
X988545Y781455D01*
X965000Y790000D02*
X980000D01*
X910000Y735000D02*
X965000Y790000D01*
X910000Y723000D02*
Y735000D01*
X977875Y777875D02*
Y780000D01*
X920000Y735000D02*
X957500Y772500D01*
X972500D01*
X920000Y723000D02*
Y735000D01*
X972500Y772500D02*
X977875Y777875D01*
D51*
X920242Y640758D02*
Y644758D01*
X915000Y650000D02*
Y655000D01*
X909949Y640949D02*
Y654949D01*
X915000Y650000D02*
X920242Y644758D01*
Y640758D02*
X921000Y640000D01*
X909000D02*
X909949Y640949D01*
X1095000Y597017D02*
Y605000D01*
X946000Y716000D02*
X950000Y720000D01*
X940000Y716000D02*
X946000D01*
X920000Y630000D02*
X921000Y631000D01*
Y640000D01*
X830000Y670000D02*
X834000Y674000D01*
X840000D01*
X865000Y775000D02*
X874786D01*
X875000Y774786D01*
X758497Y777000D02*
X765000D01*
X755842Y774344D02*
X758497Y777000D01*
X755842Y770842D02*
Y774344D01*
X755000Y770000D02*
X755842Y770842D01*
X750500Y795500D02*
X764500D01*
X750000Y795000D02*
X750500Y795500D01*
X764500D02*
X765000Y796000D01*
X777500Y787500D02*
X779582D01*
X775000Y790000D02*
X777500Y787500D01*
X771000Y790000D02*
X775000D01*
X765000Y796000D02*
X771000Y790000D01*
X825000Y813493D02*
Y815000D01*
X817500Y807250D02*
X817949Y807699D01*
X817500Y805000D02*
Y807250D01*
X938701Y715242D02*
X939551Y716092D01*
X935242Y715242D02*
X938701D01*
X931500Y711500D02*
X935242Y715242D01*
X926500Y711500D02*
X931500D01*
X1037900Y597950D02*
Y598611D01*
Y597289D02*
X1040960Y594229D01*
X1065000Y571000D02*
X1070199Y576199D01*
X1040960Y594229D02*
X1041021D01*
X1064250Y571000D02*
X1065000D01*
X833000Y765000D02*
X839500Y771500D01*
X817500Y764533D02*
Y765000D01*
X809000Y755000D02*
X815000D01*
X804000Y750000D02*
X809000Y755000D01*
X784783Y777500D02*
X785250D01*
X850449Y681500D02*
X858500D01*
X850000Y681051D02*
X850449Y681500D01*
X847051Y681051D02*
X850000D01*
X840000Y674000D02*
X847051Y681051D01*
X779582Y782500D02*
X779582D01*
X995548Y755548D02*
X995802D01*
X1001498Y761244D01*
X946500Y706500D02*
X995548Y755548D01*
X995000Y765000D02*
X996873Y763127D01*
X995000Y765000D02*
X995000D01*
X909949Y654949D02*
X910000Y655000D01*
X926500Y706500D02*
X946500D01*
X928447Y696723D02*
X929119Y696051D01*
X1007558D01*
X926500Y701500D02*
X926551Y701449D01*
X930274D01*
X931039Y700685D01*
X1009477D01*
X1014595Y695567D01*
X1087467D01*
X1088400Y696500D01*
X1012676Y690933D02*
X1087467D01*
X1007558Y696051D02*
X1012676Y690933D01*
X1087467D02*
X1088400Y690000D01*
D52*
X920000Y652750D02*
X924493Y648257D01*
X926357Y646435D02*
X928114Y644678D01*
X924493Y648257D02*
X926315Y646435D01*
X920000Y652750D02*
Y655000D01*
X926315Y646435D02*
X926357D01*
X928114Y640886D02*
Y644678D01*
Y640886D02*
X929000Y640000D01*
X1070000Y710000D02*
X1087900D01*
X1088400Y709500D01*
X990000Y795000D02*
X995000Y790000D01*
Y777700D02*
Y790000D01*
X960000Y805000D02*
Y814000D01*
X961000Y815000D01*
X950000Y625000D02*
Y637756D01*
X952244Y640000D01*
X905000Y585000D02*
X906250Y583750D01*
Y567750D02*
Y583750D01*
X900000Y630000D02*
Y639000D01*
X901000Y640000D01*
X810000Y605000D02*
Y623000D01*
X770000Y640000D02*
X788000D01*
X775000Y665000D02*
X781000D01*
X818000Y660000D02*
X820000D01*
X813000Y665000D02*
X818000Y660000D01*
X835000Y700000D02*
Y702000D01*
X840000Y707000D01*
X810000Y705000D02*
X819000D01*
X820000Y706000D01*
X779176Y792625D02*
X779425D01*
X775250Y796550D02*
Y800850D01*
Y796550D02*
X779176Y792625D01*
X772100Y804000D02*
X775250Y800850D01*
X765000Y804000D02*
X772100D01*
X870000Y723000D02*
Y739000D01*
X869000Y740000D02*
X870000Y739000D01*
X839500Y706500D02*
X840000Y707000D01*
X820500Y706500D02*
X839500D01*
X820000Y706000D02*
X820500Y706500D01*
X792500Y753500D02*
X796000Y750000D01*
X792500Y753500D02*
Y765000D01*
X843250Y667100D02*
X850556Y674407D01*
Y674818D02*
X851989Y676250D01*
X858250D01*
X850556Y674407D02*
Y674818D01*
X938900Y722900D02*
X940000Y724000D01*
X935150Y722900D02*
X938900D01*
X861000Y740000D02*
X862100Y738900D01*
X865000Y723000D02*
Y731500D01*
X862100Y734400D02*
Y738900D01*
Y734400D02*
X865000Y731500D01*
X926500Y716500D02*
X928750D01*
X935150Y722900D01*
X858250Y716250D02*
X858500Y716500D01*
X858250Y676250D02*
X858500Y676500D01*
X850000Y715000D02*
X851250Y716250D01*
X858250D01*
X840000Y715000D02*
X850000D01*
X840000Y666000D02*
X841100Y667100D01*
X843250D01*
X875000Y630000D02*
Y655000D01*
X865000Y611364D02*
Y627071D01*
X860000Y606364D02*
X865000Y611364D01*
X860000Y598083D02*
Y606364D01*
X870000Y632071D02*
Y655000D01*
X865000Y627071D02*
X870000Y632071D01*
X856250Y594333D02*
X860000Y598083D01*
X856250Y567750D02*
Y594333D01*
M02*
