G04*
G04 #@! TF.GenerationSoftware,Altium Limited,Altium Designer,26.9.1 (10)*
G04*
G04 Layer_Physical_Order=2*
G04 Layer_Color=36540*
G04 Board_Origin=0|0*
%FSLAX44Y44*%
%MOMM*%
G71*
G04*
G04 #@! TF.SameCoordinates,D9BBC1D2-CE30-4EB4-BAD6-3A8E8EEA8A01*
G04*
G04*
G04 #@! TF.FilePolarity,Positive*
G04*
G01*
G75*
%ADD46C,0.9000*%
%ADD47C,0.7000*%
%ADD48C,0.5000*%
%ADD49C,0.6000*%
G36*
X755000Y830000D02*
X948630D01*
X949182Y829390D01*
X950066Y827460D01*
X949500Y826094D01*
Y823906D01*
X950337Y821885D01*
X951885Y820337D01*
X953906Y819500D01*
X956094D01*
X958115Y820337D01*
X959663Y821885D01*
X960500Y823906D01*
Y826094D01*
X959934Y827460D01*
X960818Y829390D01*
X961370Y830000D01*
X1120000D01*
X1125000Y825000D01*
Y525000D01*
X1120000Y520000D01*
X752063D01*
X751665Y520596D01*
X752689Y523492D01*
X752755Y523537D01*
X754283Y524419D01*
X755581Y525717D01*
X756500Y527308D01*
X756975Y529082D01*
Y530918D01*
X756500Y532692D01*
X755581Y534283D01*
X754283Y535581D01*
X752692Y536500D01*
X750918Y536975D01*
X749082D01*
X747308Y536500D01*
X745717Y535581D01*
X744419Y534283D01*
X743537Y532755D01*
X743492Y532689D01*
X740596Y531665D01*
X740000Y532063D01*
Y825000D01*
X750000Y835000D01*
X755000Y830000D01*
D02*
G37*
%LPC*%
G36*
X1105918Y826975D02*
X1104082D01*
X1102308Y826500D01*
X1100717Y825581D01*
X1099419Y824283D01*
X1098500Y822692D01*
X1098025Y820918D01*
Y819082D01*
X1098500Y817308D01*
X1099419Y815717D01*
X1100717Y814419D01*
X1102308Y813500D01*
X1104082Y813025D01*
X1105918D01*
X1107692Y813500D01*
X1109283Y814419D01*
X1110581Y815717D01*
X1111500Y817308D01*
X1111975Y819082D01*
Y820918D01*
X1111500Y822692D01*
X1110581Y824283D01*
X1109283Y825581D01*
X1107692Y826500D01*
X1105918Y826975D01*
D02*
G37*
G36*
X750918D02*
X749082D01*
X747308Y826500D01*
X745717Y825581D01*
X744419Y824283D01*
X743500Y822692D01*
X743025Y820918D01*
Y819082D01*
X743500Y817308D01*
X744419Y815717D01*
X745717Y814419D01*
X747308Y813500D01*
X749082Y813025D01*
X750918D01*
X752692Y813500D01*
X754283Y814419D01*
X755581Y815717D01*
X756500Y817308D01*
X756975Y819082D01*
Y820918D01*
X756500Y822692D01*
X755581Y824283D01*
X754283Y825581D01*
X752692Y826500D01*
X750918Y826975D01*
D02*
G37*
G36*
X896094Y815500D02*
X893906D01*
X891885Y814663D01*
X890337Y813115D01*
X889500Y811094D01*
Y808906D01*
X890337Y806885D01*
X891885Y805337D01*
X893906Y804500D01*
X896094D01*
X898115Y805337D01*
X899663Y806885D01*
X900500Y808906D01*
Y811094D01*
X899663Y813115D01*
X898115Y814663D01*
X896094Y815500D01*
D02*
G37*
G36*
X861094D02*
X858906D01*
X856885Y814663D01*
X855337Y813115D01*
X854500Y811094D01*
Y808906D01*
X855337Y806885D01*
X856885Y805337D01*
X858906Y804500D01*
X861094D01*
X863115Y805337D01*
X864663Y806885D01*
X865500Y808906D01*
Y811094D01*
X864663Y813115D01*
X863115Y814663D01*
X861094Y815500D01*
D02*
G37*
G36*
X970518Y788485D02*
X968682D01*
X966908Y788010D01*
X965317Y787091D01*
X964019Y785793D01*
X963100Y784202D01*
X962625Y782428D01*
Y780592D01*
X963100Y778818D01*
X964019Y777227D01*
X965317Y775929D01*
X966908Y775010D01*
X968682Y774535D01*
X970518D01*
X972292Y775010D01*
X973883Y775929D01*
X975181Y777227D01*
X976100Y778818D01*
X976575Y780592D01*
Y782428D01*
X976100Y784202D01*
X975181Y785793D01*
X973883Y787091D01*
X972292Y788010D01*
X970518Y788485D01*
D02*
G37*
G36*
X1021318Y778325D02*
X1019482D01*
X1017708Y777850D01*
X1016117Y776931D01*
X1014819Y775633D01*
X1013900Y774042D01*
X1013425Y772268D01*
Y770432D01*
X1013900Y768658D01*
X1014819Y767067D01*
X1016117Y765769D01*
X1017708Y764850D01*
X1019482Y764375D01*
X1021318D01*
X1023092Y764850D01*
X1024683Y765769D01*
X1025981Y767067D01*
X1026900Y768658D01*
X1027375Y770432D01*
Y772268D01*
X1026900Y774042D01*
X1025981Y775633D01*
X1024683Y776931D01*
X1023092Y777850D01*
X1021318Y778325D01*
D02*
G37*
G36*
X1007700Y779739D02*
X982300D01*
X981520Y779584D01*
X980858Y779142D01*
X980416Y778480D01*
X980261Y777700D01*
Y765000D01*
X980416Y764220D01*
X980858Y763558D01*
X981520Y763116D01*
X982300Y762961D01*
X1007700D01*
X1008480Y763116D01*
X1009142Y763558D01*
X1009584Y764220D01*
X1009739Y765000D01*
Y777700D01*
X1009584Y778480D01*
X1009142Y779142D01*
X1008480Y779584D01*
X1007700Y779739D01*
D02*
G37*
G36*
X970518Y768165D02*
X968682D01*
X966908Y767690D01*
X965317Y766771D01*
X964019Y765473D01*
X963100Y763882D01*
X962625Y762108D01*
Y760272D01*
X963100Y758498D01*
X964019Y756907D01*
X965317Y755609D01*
X966908Y754690D01*
X968682Y754215D01*
X970518D01*
X972292Y754690D01*
X973883Y755609D01*
X975181Y756907D01*
X976100Y758498D01*
X976575Y760272D01*
Y762108D01*
X976100Y763882D01*
X975181Y765473D01*
X973883Y766771D01*
X972292Y767690D01*
X970518Y768165D01*
D02*
G37*
G36*
X835511Y685685D02*
X833522D01*
X831684Y684924D01*
X830278Y683517D01*
X829517Y681679D01*
Y679690D01*
X830278Y677852D01*
X831684Y676446D01*
X833522Y675685D01*
X835511D01*
X837349Y676446D01*
X838755Y677852D01*
X839517Y679690D01*
Y681679D01*
X838755Y683517D01*
X837349Y684924D01*
X835511Y685685D01*
D02*
G37*
G36*
X1110918Y536975D02*
X1109082D01*
X1107308Y536500D01*
X1105717Y535581D01*
X1104419Y534283D01*
X1103500Y532692D01*
X1103025Y530918D01*
Y529082D01*
X1103500Y527308D01*
X1104419Y525717D01*
X1105717Y524419D01*
X1107308Y523500D01*
X1109082Y523025D01*
X1110918D01*
X1112692Y523500D01*
X1114283Y524419D01*
X1115581Y525717D01*
X1116500Y527308D01*
X1116975Y529082D01*
Y530918D01*
X1116500Y532692D01*
X1115581Y534283D01*
X1114283Y535581D01*
X1112692Y536500D01*
X1110918Y536975D01*
D02*
G37*
%LPD*%
D46*
X1110000Y530000D02*
D03*
X750000D02*
D03*
X1105000Y820000D02*
D03*
X750000D02*
D03*
X969600Y781510D02*
D03*
Y761190D02*
D03*
X1020400Y771350D02*
D03*
D47*
X1040000Y590000D02*
D03*
X1055000Y630000D02*
D03*
X1035000Y635000D02*
D03*
X1040000Y625000D02*
D03*
Y615000D02*
D03*
X1070000Y585000D02*
D03*
X1060000D02*
D03*
X1095020Y606175D02*
D03*
X950498Y720394D02*
D03*
X920000Y630000D02*
D03*
X830000Y670000D02*
D03*
X1070000Y710000D02*
D03*
X990000Y795000D02*
D03*
X960000Y805000D02*
D03*
X950000Y625000D02*
D03*
X905000Y585000D02*
D03*
X900000Y630000D02*
D03*
X810000Y605000D02*
D03*
X770000Y640000D02*
D03*
X775000Y665000D02*
D03*
X820000Y660000D02*
D03*
X835000Y700000D02*
D03*
X810000Y705000D02*
D03*
X865000Y775000D02*
D03*
X833323Y764190D02*
D03*
X815000Y755000D02*
D03*
X755000Y770000D02*
D03*
X750000Y795000D02*
D03*
X955000Y825000D02*
D03*
X895000Y810000D02*
D03*
X860000D02*
D03*
D48*
X914500Y689000D02*
D03*
Y711000D02*
D03*
Y667000D02*
D03*
Y678000D02*
D03*
X903500Y700000D02*
D03*
X914500D02*
D03*
X903500Y711000D02*
D03*
Y689000D02*
D03*
X892500D02*
D03*
Y711000D02*
D03*
X881500D02*
D03*
X892500Y700000D02*
D03*
X881500Y689000D02*
D03*
X903500Y667000D02*
D03*
Y678000D02*
D03*
X892500D02*
D03*
X881500D02*
D03*
X892500Y667000D02*
D03*
X881500D02*
D03*
X810500Y790500D02*
D03*
Y779500D02*
D03*
X799500Y790500D02*
D03*
Y779500D02*
D03*
X870500Y700000D02*
D03*
Y711000D02*
D03*
X881500Y700000D02*
D03*
X870500Y689000D02*
D03*
Y667000D02*
D03*
Y678000D02*
D03*
D49*
X834517Y680685D02*
D03*
M02*
