M48
;Layer_Color=9474304
;FILE_FORMAT=4:4
METRIC,LZ
T07F00S00C5.0800
%
G90
G05
T07
G00X01130048Y00490107
M15
G01X01134895Y00491607
G01X01139347Y0049404
G01X0114296Y0049704
G01X0114796Y0050204
G01X01151172Y00505967
G01X01153538Y00510455
G01X01154966Y00515324
G01X011554Y0052
G01X011554Y00825
G01X01154893Y00830048
G01X01153393Y00834895
G01X0115096Y00839347
G01X0114796Y0084296
G01X0113796Y0085296
G01X01134032Y00856172
G01X01129545Y00858538
G01X01124676Y00859966
G01X0112Y008604
G01X00745Y008604
G01X00739952Y00859893
G01X00735105Y00858393
G01X00730653Y0085596
G01X0072704Y0085296
G01X0071704Y0084296
G01X00713828Y00839032
G01X00711462Y00834545
G01X00710034Y00829676
G01X007096Y00825
G01X007096Y0053
G01X00710107Y00524952
G01X00711607Y00520105
G01X0071404Y00515653
G01X0071704Y0051204
G01X0073204Y0049704
G01X00735968Y00493828
G01X00740455Y00491462
G01X00745324Y00490034
G01X0075Y004896
G01X01125Y004896
G01X01130048Y00490107
M16
M17
M30
