G04*
G04 #@! TF.GenerationSoftware,Altium Limited,Altium Designer,26.9.1 (10)*
G04*
G04 Layer_Color=32768*
G04 Board_Origin=0|0*
%FSLAX44Y44*%
%MOMM*%
G71*
G04*
G04 #@! TF.SameCoordinates,D9BBC1D2-CE30-4EB4-BAD6-3A8E8EEA8A01*
G04*
G04*
G04 #@! TF.FilePolarity,Positive*
G04*
G01*
G75*
%ADD11C,0.2000*%
%ADD53C,0.1000*%
%ADD54C,0.0500*%
D11*
X869638Y780362D02*
X880362D01*
X869638Y759638D02*
Y780362D01*
Y759638D02*
X880362D01*
Y780362D01*
X808000Y746000D02*
Y754000D01*
X792000D02*
X808000D01*
X792000Y746000D02*
Y754000D01*
Y746000D02*
X808000D01*
X835500Y767500D02*
X843500D01*
Y783500D01*
X835500D02*
X843500D01*
X835500Y767500D02*
Y783500D01*
X761000Y792000D02*
X769000D01*
Y808000D01*
X761000D02*
X769000D01*
X761000Y792000D02*
Y808000D01*
Y773000D02*
X769000D01*
Y789000D01*
X761000D02*
X769000D01*
X761000Y773000D02*
Y789000D01*
X936000Y712000D02*
X944000D01*
Y728000D01*
X936000D02*
X944000D01*
X936000Y712000D02*
Y728000D01*
X1077000Y653500D02*
X1136300D01*
Y739500D01*
X1077000D02*
X1136300D01*
X1077000Y653500D02*
Y739500D01*
X981475Y603971D02*
X1048525D01*
X981475Y526029D02*
Y603971D01*
Y526029D02*
X1048525D01*
Y603971D01*
X956968Y660317D02*
Y669683D01*
Y660317D02*
X972938D01*
Y669683D01*
X956968D02*
X972938D01*
X1090317Y552015D02*
X1099683D01*
Y567985D01*
X1090317D02*
X1099683D01*
X1090317Y552015D02*
Y567985D01*
X984775Y630250D02*
Y649750D01*
X945225D02*
X984775D01*
X945225Y630250D02*
Y649750D01*
Y630250D02*
X984775D01*
X1059061Y659939D02*
Y680061D01*
X1020939D02*
X1059061D01*
X1020939Y659939D02*
Y680061D01*
Y659939D02*
X1059061D01*
X1087000Y574967D02*
X1103000D01*
Y602050D01*
X1087000D02*
X1103000D01*
X1087000Y574967D02*
Y602050D01*
X1031000Y637000D02*
X1039000D01*
Y653000D01*
X1031000D02*
X1039000D01*
X1031000Y637000D02*
Y653000D01*
X1051000Y637000D02*
X1059000D01*
Y653000D01*
X1051000D02*
X1059000D01*
X1051000Y637000D02*
Y653000D01*
X819250Y521250D02*
Y577250D01*
Y521250D02*
X930750D01*
Y577250D01*
X819250D02*
X930750D01*
X894500Y787000D02*
Y803000D01*
X865500D02*
X894500D01*
X865500Y787000D02*
Y803000D01*
Y787000D02*
X894500D01*
X900500Y787000D02*
Y803000D01*
Y787000D02*
X929500D01*
Y803000D01*
X900500D02*
X929500D01*
X817000Y661000D02*
Y669000D01*
X801000D02*
X817000D01*
X801000Y661000D02*
Y669000D01*
Y661000D02*
X817000D01*
X780000Y616000D02*
Y647000D01*
Y616000D02*
X818000D01*
Y647000D01*
X780000D02*
X818000D01*
X777000Y661000D02*
Y669000D01*
Y661000D02*
X793000D01*
Y669000D01*
X777000D02*
X793000D01*
X994706Y804939D02*
Y825061D01*
Y804939D02*
X1032828D01*
Y825061D01*
X994706D02*
X1032828D01*
X897000Y636000D02*
Y644000D01*
Y636000D02*
X913000D01*
Y644000D01*
X897000D02*
X913000D01*
X957000Y811000D02*
Y819000D01*
Y811000D02*
X973000D01*
Y819000D01*
X957000D02*
X973000D01*
X873000Y736000D02*
Y744000D01*
X857000D02*
X873000D01*
X857000Y736000D02*
Y744000D01*
Y736000D02*
X873000D01*
X917000Y636000D02*
Y644000D01*
Y636000D02*
X933000D01*
Y644000D01*
X917000D02*
X933000D01*
X836000Y678000D02*
X844000D01*
X836000Y662000D02*
Y678000D01*
Y662000D02*
X844000D01*
Y678000D01*
X836000Y703000D02*
X844000D01*
Y719000D01*
X836000D02*
X844000D01*
X836000Y703000D02*
Y719000D01*
X816000Y702000D02*
X824000D01*
Y718000D01*
X816000D02*
X824000D01*
X816000Y702000D02*
Y718000D01*
D53*
X800000Y785000D02*
X810000D01*
X805000Y780000D02*
Y790000D01*
X892500Y684000D02*
Y694000D01*
X887500Y689000D02*
X897500D01*
X1060000Y563000D02*
X1070000D01*
X1065000Y558000D02*
Y568000D01*
X1020000Y615000D02*
Y625000D01*
X1015000Y620000D02*
X1025000D01*
X807750Y685000D02*
X817750D01*
X812750Y680000D02*
Y690000D01*
D54*
X780000Y810000D02*
X830000D01*
X780000Y760000D02*
Y810000D01*
Y760000D02*
X830000D01*
Y810000D01*
X853500Y650000D02*
X931500D01*
X853500Y728000D02*
X931500D01*
Y650000D02*
Y728000D01*
X853500Y650000D02*
Y728000D01*
X1055000Y546000D02*
Y580000D01*
X1075000Y546000D02*
Y580000D01*
X1055000Y546000D02*
X1075000D01*
X1055000Y580000D02*
X1075000D01*
X1003000Y630000D02*
X1037000D01*
X1003000Y610000D02*
X1037000D01*
X1003000D02*
Y630000D01*
X1037000Y610000D02*
Y630000D01*
X799250Y676500D02*
Y693500D01*
X826250Y676500D02*
Y693500D01*
X799250D02*
X826250D01*
X799250Y676500D02*
X826250D01*
M02*
